<svg xmlns="http://www.w3.org/2000/svg" viewBox="0 0 64 64" role="img" aria-label="知匣">
  <rect width="64" height="64" rx="12" fill="#1d4ed8" />
  <path d="M21 12h22a4 4 0 0 1 4 4v23H21z" fill="#bfdbfe" />
  <path d="M17 18h22a4 4 0 0 1 4 4v20H17z" fill="#ffffff" />
  <rect x="38" y="12" width="10" height="8" rx="2" fill="#14b8a6" />
  <path d="M10 29h44l-3.2 19.3A5.7 5.7 0 0 1 45.2 53H18.8a5.7 5.7 0 0 1-5.6-4.7z" fill="#ffffff" />
  <path d="M10 29h44l-1.3 8H11.3z" fill="#dbeafe" />
  <path d="M26 33h12" fill="none" stroke="#1d4ed8" stroke-linecap="round" stroke-width="4" />
</svg>
